<svg width="171" height="36" viewBox="0 0 171 36" fill="none" xmlns="http://www.w3.org/2000/svg">
<path fill-rule="evenodd" clip-rule="evenodd" d="M27.8333 18C27.8333 25.0877 22.0877 30.8333 15 30.8333C7.91234 30.8333 2.16666 25.0877 2.16666 18C2.16666 10.9123 7.91234 5.16666 15 5.16666C22.0877 5.16666 27.8333 10.9123 27.8333 18ZM30 18C30 26.2843 23.2843 33 15 33C6.71573 33 0 26.2843 0 18C0 9.71573 6.71573 3 15 3C23.2843 3 30 9.71573 30 18ZM23.2759 11.2759C23.2759 12.1329 22.5812 12.8276 21.7242 12.8276C20.8672 12.8276 20.1725 12.1329 20.1725 11.2759C20.1725 10.4189 20.8672 9.72418 21.7242 9.72418C22.5812 9.72418 23.2759 10.4189 23.2759 11.2759ZM10.4879 19.209C11.1556 21.7009 13.717 23.1797 16.2089 22.512C18.7008 21.8443 20.1796 19.2829 19.5119 16.791C18.8442 14.2991 16.2828 12.8203 13.7909 13.488C11.299 14.1557 9.82015 16.7171 10.4879 19.209ZM8.39503 19.7698C9.37244 23.4175 13.1219 25.5823 16.7696 24.6049C20.4174 23.6274 22.5821 19.878 21.6047 16.2302C20.6273 12.5825 16.8779 10.4177 13.2301 11.3952C9.58236 12.3726 7.41762 16.122 8.39503 19.7698Z" fill="url(#paint0_linear_209_261)"/>
<path d="M36.1293 13.4773L36.5341 11.0909H46.0156L45.6108 13.4773H42.3295L40.9233 22H38.0043L39.4105 13.4773H36.1293ZM44.5122 22L45.8758 13.8182H48.7309L48.4752 15.3736H48.5605C48.8055 14.7983 49.1127 14.3775 49.482 14.1112C49.8513 13.8448 50.2544 13.7116 50.6911 13.7116C50.819 13.7116 50.9415 13.7223 51.0587 13.7436C51.1794 13.7614 51.2984 13.7862 51.4156 13.8182L50.9894 16.3324C50.8509 16.2791 50.6787 16.2418 50.4727 16.2205C50.2668 16.1957 50.0839 16.1832 49.9241 16.1832C49.64 16.1832 49.3737 16.2489 49.1251 16.3803C48.8801 16.5082 48.6705 16.6893 48.4965 16.9237C48.3261 17.1545 48.2124 17.4261 48.1556 17.7386L47.4525 22H44.5122ZM54.4465 22.1491C53.5729 22.1491 52.8485 21.9822 52.2732 21.6484C51.6979 21.3111 51.2931 20.8281 51.0587 20.1996C50.8243 19.5675 50.7817 18.8111 50.9308 17.9304C51.0729 17.0852 51.3659 16.3466 51.8097 15.7145C52.2572 15.0824 52.82 14.5906 53.4983 14.239C54.1801 13.8874 54.9436 13.7116 55.7888 13.7116C56.4067 13.7116 56.9482 13.8075 57.4134 13.9993C57.8822 14.1911 58.2639 14.4698 58.5587 14.8356C58.8534 15.2013 59.0523 15.6435 59.1553 16.1619C59.2618 16.6768 59.2618 17.2592 59.1553 17.9091L59.0487 18.5909H51.7405L51.9962 16.9716H56.5985C56.634 16.7372 56.6109 16.5312 56.5292 16.3537C56.4511 16.1726 56.325 16.0323 56.151 15.9329C55.9806 15.8299 55.7746 15.7784 55.5331 15.7784C55.2916 15.7784 55.0644 15.8299 54.8513 15.9329C54.6418 16.0359 54.4624 16.1797 54.3133 16.3643C54.1677 16.549 54.07 16.7656 54.0203 17.0142L53.7007 18.7188C53.6581 18.9815 53.6741 19.2159 53.7487 19.4219C53.8232 19.6278 53.9529 19.7894 54.1375 19.9066C54.3222 20.0238 54.5601 20.0824 54.8513 20.0824C55.0502 20.0824 55.2384 20.0558 55.4159 20.0025C55.597 19.9457 55.7568 19.864 55.8953 19.7575C56.0374 19.6474 56.151 19.5142 56.2362 19.358H58.9209C58.7291 19.9261 58.4255 20.4197 58.01 20.8388C57.5981 21.2543 57.0903 21.5774 56.4866 21.8082C55.8865 22.0355 55.2064 22.1491 54.4465 22.1491ZM63.402 17.3977L62.6349 22H59.6946L61.0582 13.8182H63.8494L63.5938 15.3736H63.679C63.9382 14.8516 64.3164 14.445 64.8136 14.1538C65.3143 13.859 65.8665 13.7116 66.4702 13.7116C67.049 13.7116 67.5302 13.843 67.9137 14.1058C68.2972 14.3686 68.5689 14.7308 68.7287 15.1925C68.8885 15.6541 68.9169 16.1832 68.8139 16.7798L67.9403 22H65L65.767 17.3977C65.8345 16.9929 65.7848 16.6751 65.6179 16.4442C65.4545 16.2134 65.1847 16.098 64.8082 16.098C64.5703 16.098 64.3519 16.1513 64.1531 16.2578C63.9577 16.3608 63.7944 16.5099 63.663 16.7053C63.5352 16.897 63.4482 17.1278 63.402 17.3977ZM72.3216 22.1065C71.7392 22.1065 71.2278 21.9538 70.7875 21.6484C70.3507 21.343 70.0364 20.8796 69.8446 20.2582C69.6564 19.6367 69.6404 18.8537 69.7967 17.9091C69.96 16.9219 70.2459 16.1193 70.6543 15.5014C71.0662 14.8835 71.5385 14.4308 72.0712 14.1431C72.6074 13.8555 73.1454 13.7116 73.6852 13.7116C74.09 13.7116 74.4327 13.7827 74.7132 13.9247C74.9973 14.0632 75.2228 14.2496 75.3897 14.484C75.5566 14.7148 75.6703 14.9687 75.7306 15.2457H75.7733L76.4657 11.0909H79.4061L77.595 22H74.676L74.8997 20.6577H74.8358C74.676 20.9347 74.4718 21.1832 74.2232 21.4034C73.9782 21.62 73.6958 21.7923 73.3762 21.9201C73.0566 22.0444 72.7051 22.1065 72.3216 22.1065ZM73.7811 19.848C74.051 19.848 74.296 19.7699 74.5162 19.6136C74.7363 19.4538 74.9228 19.2301 75.0755 18.9425C75.2282 18.6513 75.3365 18.3068 75.4004 17.9091C75.4679 17.5043 75.4732 17.158 75.4164 16.8704C75.3596 16.5792 75.2459 16.3572 75.0755 16.2045C74.9086 16.0483 74.6902 15.9702 74.4203 15.9702C74.1504 15.9702 73.9071 16.0483 73.6905 16.2045C73.4739 16.3572 73.291 16.5792 73.1419 16.8704C72.9963 17.158 72.8897 17.5043 72.8223 17.9091C72.7548 18.3139 72.7459 18.6619 72.7956 18.9531C72.8489 19.2408 72.959 19.4627 73.1259 19.619C73.2928 19.7717 73.5112 19.848 73.7811 19.848ZM83.79 11.0909L81.9789 22H79.0385L80.8496 11.0909H83.79ZM83.477 22L84.8406 13.8182H87.781L86.4173 22H83.477ZM86.4387 12.9659C86.0409 12.9659 85.7195 12.8345 85.4745 12.5717C85.2295 12.3054 85.1389 11.9893 85.2029 11.6236C85.2668 11.2507 85.4621 10.9347 85.7888 10.6754C86.1155 10.4126 86.4777 10.2812 86.8754 10.2812C87.2767 10.2812 87.5963 10.4126 87.8343 10.6754C88.0722 10.9347 88.161 11.2507 88.1006 11.6236C88.0438 11.9893 87.852 12.3054 87.5253 12.5717C87.2021 12.8345 86.8399 12.9659 86.4387 12.9659ZM91.6442 17.3977L90.8771 22H87.9368L89.3004 13.8182H92.0916L91.8359 15.3736H91.9212C92.1804 14.8516 92.5586 14.445 93.0558 14.1538C93.5565 13.859 94.1087 13.7116 94.7124 13.7116C95.2912 13.7116 95.7724 13.843 96.1559 14.1058C96.5394 14.3686 96.8111 14.7308 96.9709 15.1925C97.1307 15.6541 97.1591 16.1832 97.0561 16.7798L96.1825 22H93.2422L94.0092 17.3977C94.0767 16.9929 94.027 16.6751 93.8601 16.4442C93.6967 16.2134 93.4268 16.098 93.0504 16.098C92.8125 16.098 92.5941 16.1513 92.3952 16.2578C92.1999 16.3608 92.0366 16.5099 91.9052 16.7053C91.7773 16.897 91.6903 17.1278 91.6442 17.3977ZM100.574 20.0611L101.171 16.5668H101.555L104.005 13.8182H107.307L103.28 18.1009H102.449L100.574 20.0611ZM97.6127 22L99.4238 11.0909H102.364L100.553 22H97.6127ZM102.662 22L101.32 18.7614L103.6 16.6733L106.029 22H102.662ZM110.272 22.1491C109.398 22.1491 108.674 21.9822 108.098 21.6484C107.523 21.3111 107.118 20.8281 106.884 20.1996C106.65 19.5675 106.607 18.8111 106.756 17.9304C106.898 17.0852 107.191 16.3466 107.635 15.7145C108.082 15.0824 108.645 14.5906 109.324 14.239C110.005 13.8874 110.769 13.7116 111.614 13.7116C112.232 13.7116 112.773 13.8075 113.239 13.9993C113.707 14.1911 114.089 14.4698 114.384 14.8356C114.679 15.2013 114.877 15.6435 114.98 16.1619C115.087 16.6768 115.087 17.2592 114.98 17.9091L114.874 18.5909H107.566L107.821 16.9716H112.424C112.459 16.7372 112.436 16.5312 112.354 16.3537C112.276 16.1726 112.15 16.0323 111.976 15.9329C111.806 15.8299 111.6 15.7784 111.358 15.7784C111.117 15.7784 110.89 15.8299 110.676 15.9329C110.467 16.0359 110.288 16.1797 110.138 16.3643C109.993 16.549 109.895 16.7656 109.846 17.0142L109.526 18.7188C109.483 18.9815 109.499 19.2159 109.574 19.4219C109.648 19.6278 109.778 19.7894 109.963 19.9066C110.147 20.0238 110.385 20.0824 110.676 20.0824C110.875 20.0824 111.064 20.0558 111.241 20.0025C111.422 19.9457 111.582 19.864 111.721 19.7575C111.863 19.6474 111.976 19.5142 112.061 19.358H114.746C114.554 19.9261 114.251 20.4197 113.835 20.8388C113.423 21.2543 112.915 21.5774 112.312 21.8082C111.712 22.0355 111.032 22.1491 110.272 22.1491ZM115.498 22L116.862 13.8182H119.717L119.462 15.3736H119.547C119.792 14.7983 120.099 14.3775 120.468 14.1112C120.838 13.8448 121.241 13.7116 121.677 13.7116C121.805 13.7116 121.928 13.7223 122.045 13.7436C122.166 13.7614 122.285 13.7862 122.402 13.8182L121.976 16.3324C121.837 16.2791 121.665 16.2418 121.459 16.2205C121.253 16.1957 121.07 16.1832 120.91 16.1832C120.626 16.1832 120.36 16.2489 120.111 16.3803C119.866 16.5082 119.657 16.6893 119.483 16.9237C119.312 17.1545 119.199 17.4261 119.142 17.7386L118.439 22H115.498Z" fill="white"/>
<defs>
<linearGradient id="paint0_linear_209_261" x1="15" y1="3" x2="15" y2="33" gradientUnits="userSpaceOnUse">
<stop stop-color="#877EFF"/>
<stop offset="0.461458" stop-color="#685DFF"/>
<stop offset="1" stop-color="#3121FF"/>
</linearGradient>
</defs>
</svg>
