<svg width="171" height="36" viewBox="0 0 171 36" fill="none" xmlns="http://www.w3.org/2000/svg">
<path fill-rule="evenodd" clip-rule="evenodd" d="M27.8333 18C27.8333 25.0877 22.0877 30.8333 15 30.8333C7.91234 30.8333 2.16666 25.0877 2.16666 18C2.16666 10.9123 7.91234 5.16666 15 5.16666C22.0877 5.16666 27.8333 10.9123 27.8333 18ZM30 18C30 26.2843 23.2843 33 15 33C6.71573 33 0 26.2843 0 18C0 9.71573 6.71573 3 15 3C23.2843 3 30 9.71573 30 18ZM23.2759 11.2759C23.2759 12.1329 22.5812 12.8276 21.7242 12.8276C20.8672 12.8276 20.1725 12.1329 20.1725 11.2759C20.1725 10.4189 20.8672 9.72418 21.7242 9.72418C22.5812 9.72418 23.2759 10.4189 23.2759 11.2759ZM10.4879 19.209C11.1556 21.7009 13.717 23.1797 16.2089 22.512C18.7008 21.8443 20.1796 19.2829 19.5119 16.791C18.8442 14.2991 16.2828 12.8203 13.7909 13.488C11.299 14.1557 9.82015 16.7171 10.4879 19.209ZM8.39503 19.7698C9.37244 23.4175 13.1219 25.5823 16.7696 24.6049C20.4174 23.6274 22.5821 19.878 21.6047 16.2302C20.6273 12.5825 16.8779 10.4177 13.2301 11.3952C9.58236 12.3726 7.41762 16.122 8.39503 19.7698Z" fill="url(#paint0_linear_209_261)"/>
<path d="M37.5057 14.6364L38.0455 11.4545H50.6875L50.1477 14.6364H45.7727L43.8977 26H40.0057L41.8807 14.6364H37.5057ZM48.6829 26L50.5011 15.0909H54.3079L53.967 17.1648H54.0806C54.4073 16.3977 54.8169 15.8366 55.3093 15.4815C55.8017 15.1264 56.3391 14.9489 56.9215 14.9489C57.092 14.9489 57.2553 14.9631 57.4116 14.9915C57.5726 15.0152 57.7312 15.0483 57.8874 15.0909L57.3192 18.4432C57.1346 18.3722 56.9049 18.3224 56.6303 18.294C56.3557 18.2609 56.1119 18.2443 55.8988 18.2443C55.52 18.2443 55.1649 18.3319 54.8335 18.5071C54.5067 18.6776 54.2274 18.919 53.9954 19.2315C53.7681 19.5393 53.6166 19.9015 53.5408 20.3182L52.6033 26H48.6829ZM61.9286 26.1989C60.7638 26.1989 59.7979 25.9763 59.0309 25.5312C58.2638 25.0814 57.7241 24.4375 57.4116 23.5994C57.0991 22.7566 57.0423 21.7481 57.2411 20.5739C57.4305 19.447 57.8211 18.4621 58.413 17.6193C59.0096 16.7765 59.7601 16.1207 60.6644 15.652C61.5735 15.1832 62.5915 14.9489 63.7184 14.9489C64.5423 14.9489 65.2643 15.0767 65.8846 15.3324C66.5096 15.5881 67.0186 15.9598 67.4116 16.4474C67.8046 16.9351 68.0697 17.5246 68.207 18.2159C68.3491 18.9025 68.3491 19.679 68.207 20.5455L68.065 21.4545H58.3207L58.6616 19.2955H64.7979C64.8453 18.983 64.8145 18.7083 64.7056 18.4716C64.6014 18.2301 64.4334 18.0431 64.2013 17.9105C63.9741 17.7732 63.6995 17.7045 63.3775 17.7045C63.0555 17.7045 62.7525 17.7732 62.4684 17.9105C62.189 18.0478 61.9499 18.2396 61.7511 18.4858C61.5569 18.732 61.4267 19.0208 61.3604 19.3523L60.9343 21.625C60.8775 21.9754 60.8988 22.2879 60.9982 22.5625C61.0977 22.8371 61.2705 23.0526 61.5167 23.2088C61.7629 23.3651 62.0801 23.4432 62.4684 23.4432C62.7335 23.4432 62.9845 23.4077 63.2212 23.3366C63.4627 23.2609 63.6758 23.152 63.8604 23.0099C64.0498 22.8632 64.2013 22.6856 64.315 22.4773H67.8945C67.6388 23.2348 67.234 23.893 66.68 24.4517C66.1308 25.0057 65.4537 25.4366 64.6488 25.7443C63.8486 26.0473 62.9419 26.1989 61.9286 26.1989ZM73.8693 19.8636L72.8466 26H68.9261L70.7443 15.0909H74.4659L74.125 17.1648H74.2386C74.5843 16.4687 75.0885 15.9266 75.7514 15.5384C76.419 15.1454 77.1553 14.9489 77.9602 14.9489C78.732 14.9489 79.3736 15.1241 79.8849 15.4744C80.3963 15.8248 80.7585 16.3078 80.9716 16.9233C81.1847 17.5388 81.2225 18.2443 81.0852 19.0398L79.9205 26H76L77.0227 19.8636C77.1127 19.3239 77.0464 18.9001 76.8239 18.5923C76.6061 18.2846 76.2462 18.1307 75.7443 18.1307C75.4271 18.1307 75.1359 18.2017 74.8707 18.3438C74.6103 18.4811 74.3925 18.6799 74.2173 18.9403C74.0469 19.196 73.9309 19.5038 73.8693 19.8636ZM85.7621 26.142C84.9856 26.142 84.3037 25.9384 83.7166 25.5312C83.1342 25.1241 82.7152 24.5062 82.4595 23.6776C82.2086 22.849 82.1873 21.8049 82.3956 20.5455C82.6134 19.2292 82.9946 18.1591 83.5391 17.3352C84.0883 16.5114 84.718 15.9077 85.4283 15.5241C86.1432 15.1406 86.8606 14.9489 87.5803 14.9489C88.12 14.9489 88.5769 15.0436 88.951 15.233C89.3298 15.4176 89.6304 15.6662 89.853 15.9787C90.0755 16.2865 90.227 16.625 90.3075 16.9943H90.3643L91.2876 11.4545H95.2081L92.7933 26H88.9013L89.1996 24.2102H89.1143C88.9013 24.5795 88.629 24.911 88.2976 25.2045C87.9709 25.4934 87.5945 25.723 87.1683 25.8935C86.7422 26.0592 86.2734 26.142 85.7621 26.142ZM87.7081 23.1307C88.0679 23.1307 88.3946 23.0265 88.6882 22.8182C88.9818 22.6051 89.2304 22.3068 89.4339 21.9233C89.6375 21.535 89.782 21.0758 89.8672 20.5455C89.9571 20.0057 89.9643 19.544 89.8885 19.1605C89.8127 18.7723 89.6612 18.4763 89.4339 18.2727C89.2114 18.0644 88.9202 17.9602 88.5604 17.9602C88.2005 17.9602 87.8762 18.0644 87.5874 18.2727C87.2985 18.4763 87.0547 18.7723 86.8558 19.1605C86.6617 19.544 86.5196 20.0057 86.4297 20.5455C86.3397 21.0852 86.3279 21.5492 86.3942 21.9375C86.4652 22.321 86.612 22.617 86.8345 22.8253C87.0571 23.0289 87.3482 23.1307 87.7081 23.1307ZM101.053 11.4545L98.6385 26H94.718L97.1328 11.4545H101.053ZM100.636 26L102.454 15.0909H106.375L104.556 26H100.636ZM104.585 13.9545C104.055 13.9545 103.626 13.7794 103.299 13.429C102.973 13.0739 102.852 12.6525 102.937 12.1648C103.022 11.6676 103.283 11.2462 103.718 10.9006C104.154 10.5502 104.637 10.375 105.167 10.375C105.702 10.375 106.128 10.5502 106.446 10.9006C106.763 11.2462 106.881 11.6676 106.801 12.1648C106.725 12.6525 106.469 13.0739 106.034 13.429C105.603 13.7794 105.12 13.9545 104.585 13.9545ZM111.526 19.8636L110.503 26H106.582L108.401 15.0909H112.122L111.781 17.1648H111.895C112.241 16.4687 112.745 15.9266 113.408 15.5384C114.075 15.1454 114.812 14.9489 115.616 14.9489C116.388 14.9489 117.03 15.1241 117.541 15.4744C118.053 15.8248 118.415 16.3078 118.628 16.9233C118.841 17.5388 118.879 18.2443 118.741 19.0398L117.577 26H113.656L114.679 19.8636C114.769 19.3239 114.703 18.9001 114.48 18.5923C114.262 18.2846 113.902 18.1307 113.401 18.1307C113.083 18.1307 112.792 18.2017 112.527 18.3438C112.267 18.4811 112.049 18.6799 111.874 18.9403C111.703 19.196 111.587 19.5038 111.526 19.8636ZM123.433 23.4148L124.228 18.7557H124.739L128.006 15.0909H132.41L127.04 20.8011H125.933L123.433 23.4148ZM119.484 26L121.898 11.4545H125.819L123.404 26H119.484ZM126.217 26L124.427 21.6818L127.467 18.8977L130.705 26H126.217ZM136.362 26.1989C135.197 26.1989 134.232 25.9763 133.464 25.5312C132.697 25.0814 132.158 24.4375 131.845 23.5994C131.533 22.7566 131.476 21.7481 131.675 20.5739C131.864 19.447 132.255 18.4621 132.847 17.6193C133.443 16.7765 134.194 16.1207 135.098 15.652C136.007 15.1832 137.025 14.9489 138.152 14.9489C138.976 14.9489 139.698 15.0767 140.318 15.3324C140.943 15.5881 141.452 15.9598 141.845 16.4474C142.238 16.9351 142.503 17.5246 142.641 18.2159C142.783 18.9025 142.783 19.679 142.641 20.5455L142.499 21.4545H132.754L133.095 19.2955H139.232C139.279 18.983 139.248 18.7083 139.139 18.4716C139.035 18.2301 138.867 18.0431 138.635 17.9105C138.408 17.7732 138.133 17.7045 137.811 17.7045C137.489 17.7045 137.186 17.7732 136.902 17.9105C136.623 18.0478 136.384 18.2396 136.185 18.4858C135.991 18.732 135.86 19.0208 135.794 19.3523L135.368 21.625C135.311 21.9754 135.332 22.2879 135.432 22.5625C135.531 22.8371 135.704 23.0526 135.95 23.2088C136.196 23.3651 136.514 23.4432 136.902 23.4432C137.167 23.4432 137.418 23.4077 137.655 23.3366C137.896 23.2609 138.109 23.152 138.294 23.0099C138.483 22.8632 138.635 22.6856 138.749 22.4773H142.328C142.072 23.2348 141.668 23.893 141.114 24.4517C140.564 25.0057 139.887 25.4366 139.082 25.7443C138.282 26.0473 137.375 26.1989 136.362 26.1989ZM143.331 26L145.15 15.0909H148.956L148.615 17.1648H148.729C149.056 16.3977 149.465 15.8366 149.958 15.4815C150.45 15.1264 150.988 14.9489 151.57 14.9489C151.74 14.9489 151.904 14.9631 152.06 14.9915C152.221 15.0152 152.38 15.0483 152.536 15.0909L151.968 18.4432C151.783 18.3722 151.553 18.3224 151.279 18.294C151.004 18.2609 150.76 18.2443 150.547 18.2443C150.168 18.2443 149.813 18.3319 149.482 18.5071C149.155 18.6776 148.876 18.919 148.644 19.2315C148.417 19.5393 148.265 19.9015 148.189 20.3182L147.252 26H143.331Z" fill="white"/>
<defs>
<linearGradient id="paint0_linear_209_261" x1="15" y1="3" x2="15" y2="33" gradientUnits="userSpaceOnUse">
<stop stop-color="#877EFF"/>
<stop offset="0.461458" stop-color="#685DFF"/>
<stop offset="1" stop-color="#3121FF"/>
</linearGradient>
</defs>
</svg>
